<svg xmlns="http://www.w3.org/2000/svg" xmlns:xlink="http://www.w3.org/1999/xlink" width="40" zoomAndPan="magnify" viewBox="0 0 30 30.000001" height="40" preserveAspectRatio="xMidYMid meet" version="1.0"><defs><clipPath id="ece2ab0f57"><path d="M 6 1.503906 L 26.613281 1.503906 L 26.613281 29.03125 L 6 29.03125 Z M 6 1.503906 " clip-rule="nonzero"/></clipPath><clipPath id="bbed00cbf4"><path d="M 3.386719 12 L 24 12 L 24 23 L 3.386719 23 Z M 3.386719 12 " clip-rule="nonzero"/></clipPath><clipPath id="b03922d8d8"><path d="M 19 1.503906 L 26.613281 1.503906 L 26.613281 14 L 19 14 Z M 19 1.503906 " clip-rule="nonzero"/></clipPath><clipPath id="87058432e7"><path d="M 19 1.503906 L 26.613281 1.503906 L 26.613281 9 L 19 9 Z M 19 1.503906 " clip-rule="nonzero"/></clipPath></defs><g clip-path="url(#ece2ab0f57)"><path fill="#f2f2f2" d="M 26.609375 8.371094 L 26.609375 27.710938 C 26.609375 28.472656 25.992188 29.085938 25.230469 29.085938 L 7.652344 29.085938 C 6.890625 29.085938 6.273438 28.46875 6.273438 27.710938 L 6.273438 2.882812 C 6.273438 2.117188 6.890625 1.503906 7.652344 1.503906 L 19.765625 1.503906 L 20.78125 2.523438 Z M 26.609375 8.371094 " fill-opacity="1" fill-rule="nonzero"/></g><path fill="#cccccc" d="M 23.792969 14.378906 L 23.792969 22.648438 C 23.792969 23.253906 23.300781 23.746094 22.6875 23.746094 L 6.273438 23.746094 L 6.273438 13.273438 L 22.6875 13.273438 C 23.300781 13.273438 23.792969 13.769531 23.792969 14.378906 Z M 23.792969 14.378906 " fill-opacity="1" fill-rule="nonzero"/><g clip-path="url(#bbed00cbf4)"><path fill="#ff0000" d="M 22.695312 22.648438 L 4.492188 22.648438 C 3.886719 22.648438 3.390625 22.148438 3.390625 21.542969 L 3.390625 13.277344 C 3.390625 12.671875 3.886719 12.171875 4.492188 12.171875 L 22.695312 12.171875 C 23.300781 12.171875 23.796875 12.671875 23.796875 13.277344 L 23.796875 21.542969 C 23.796875 22.148438 23.300781 22.648438 22.695312 22.648438 Z M 22.695312 22.648438 " fill-opacity="1" fill-rule="nonzero"/></g><g clip-path="url(#b03922d8d8)"><path fill="#e6e6e6" d="M 26.609375 13.238281 L 19.875 6.507812 L 19.875 1.644531 L 26.609375 8.371094 Z M 26.609375 13.238281 " fill-opacity="1" fill-rule="nonzero"/></g><g clip-path="url(#87058432e7)"><path fill="#b3b3b3" d="M 26.609375 8.371094 L 21.144531 8.371094 C 20.382812 8.371094 19.765625 7.75 19.765625 6.992188 L 19.765625 1.503906 L 20.78125 2.523438 Z M 26.609375 8.371094 " fill-opacity="1" fill-rule="nonzero"/></g><path fill="#ffffff" d="M 10.78125 16.203125 C 10.78125 17.253906 10.078125 17.800781 9.308594 17.894531 C 9.019531 17.925781 8.804688 17.933594 8.476562 17.933594 L 7.855469 17.933594 L 7.855469 19.800781 L 6.460938 19.800781 L 6.460938 14.476562 L 8.46875 14.476562 C 8.800781 14.476562 9.015625 14.484375 9.300781 14.515625 C 10.074219 14.605469 10.78125 15.152344 10.78125 16.203125 Z M 9.328125 16.203125 C 9.328125 15.796875 9.121094 15.59375 8.765625 15.5625 C 8.667969 15.554688 8.539062 15.554688 8.398438 15.554688 L 7.855469 15.554688 L 7.855469 16.855469 L 8.398438 16.855469 C 8.546875 16.855469 8.667969 16.855469 8.765625 16.847656 C 9.121094 16.808594 9.328125 16.601562 9.328125 16.203125 Z M 9.328125 16.203125 " fill-opacity="1" fill-rule="nonzero"/><path fill="#ffffff" d="M 16.382812 17.0625 C 16.382812 18.734375 15.363281 19.625 14.128906 19.765625 C 13.859375 19.800781 13.738281 19.800781 13.449219 19.800781 L 11.4375 19.800781 L 11.4375 14.476562 L 13.449219 14.476562 C 13.738281 14.476562 13.859375 14.476562 14.128906 14.511719 C 15.363281 14.644531 16.382812 15.402344 16.382812 17.0625 Z M 14.933594 17.085938 C 14.933594 16.136719 14.453125 15.628906 13.757812 15.566406 C 13.582031 15.550781 13.457031 15.550781 13.257812 15.550781 L 12.828125 15.550781 L 12.828125 18.710938 L 13.257812 18.710938 C 13.457031 18.710938 13.582031 18.710938 13.757812 18.695312 C 14.453125 18.640625 14.933594 18.039062 14.933594 17.085938 Z M 14.933594 17.085938 " fill-opacity="1" fill-rule="nonzero"/><path fill="#ffffff" d="M 18.605469 16.589844 L 20.996094 16.589844 L 20.996094 17.667969 L 18.605469 17.667969 L 18.605469 19.792969 L 17.21875 19.792969 L 17.21875 14.472656 L 21.226562 14.472656 L 21.226562 15.550781 L 18.605469 15.550781 Z M 18.605469 16.589844 " fill-opacity="1" fill-rule="nonzero"/></svg>